<svg xmlns="http://www.w3.org/2000/svg" viewBox="0 0 1200 760" role="img" aria-labelledby="title desc">
<title id="title">LEY.DO interfaz documental</title><desc id="desc">Panel elegante de archivo legal con documentos, metadatos y trazabilidad.</desc>
<defs>
<linearGradient id="bg" x1="0" x2="1" y1="0" y2="1"><stop offset="0" stop-color="#ffffff"/><stop offset="1" stop-color="#eef7ff"/></linearGradient>
<linearGradient id="accent" x1="0" x2="1"><stop offset="0" stop-color="#533afd"/><stop offset="1" stop-color="#0f766e"/></linearGradient>
<filter id="s" x="-20%" y="-20%" width="140%" height="140%"><feDropShadow dx="0" dy="22" stdDeviation="24" flood-color="#32325d" flood-opacity="0.20"/></filter>
</defs>
<rect x="28" y="34" width="1144" height="692" rx="26" fill="url(#bg)" filter="url(#s)"/>
<rect x="78" y="82" width="1044" height="74" rx="14" fill="#061b31"/>
<circle cx="120" cy="119" r="9" fill="#f96bee"/><circle cx="150" cy="119" r="9" fill="#ffd166"/><circle cx="180" cy="119" r="9" fill="#15be53"/>
<text x="236" y="128" font-family="Source Sans 3, Segoe UI, Arial" font-size="28" font-weight="700" fill="#ffffff">LEY.DO · Corpus legal dominicano</text>
<rect x="92" y="196" width="310" height="454" rx="18" fill="#ffffff" stroke="#e5edf5"/>
<text x="124" y="246" font-family="Source Sans 3, Segoe UI, Arial" font-size="24" font-weight="700" fill="#061b31">Documentos</text>
<g font-family="Source Sans 3, Segoe UI, Arial" font-size="18" font-weight="600">
<rect x="124" y="286" width="232" height="44" rx="10" fill="#f6f9fc"/><text x="146" y="315" fill="#533afd">Constitución</text>
<rect x="124" y="346" width="232" height="44" rx="10" fill="#f6f9fc"/><text x="146" y="375" fill="#061b31">Leyes</text>
<rect x="124" y="406" width="232" height="44" rx="10" fill="#f6f9fc"/><text x="146" y="435" fill="#061b31">Decretos</text>
<rect x="124" y="466" width="232" height="44" rx="10" fill="#f6f9fc"/><text x="146" y="495" fill="#061b31">Resoluciones</text>
<rect x="124" y="526" width="232" height="44" rx="10" fill="#f6f9fc"/><text x="146" y="555" fill="#061b31">Proyectos</text>
</g>
<rect x="442" y="196" width="640" height="190" rx="18" fill="#ffffff" stroke="#e5edf5"/>
<text x="482" y="252" font-family="Source Sans 3, Segoe UI, Arial" font-size="34" font-weight="300" fill="#061b31">Archivo verificable</text>
<rect x="482" y="286" width="226" height="12" rx="6" fill="#64748d" opacity=".35"/><rect x="482" y="318" width="490" height="12" rx="6" fill="#64748d" opacity=".22"/><rect x="482" y="350" width="420" height="12" rx="6" fill="#64748d" opacity=".22"/>
<rect x="442" y="420" width="300" height="230" rx="18" fill="#ffffff" stroke="#e5edf5"/>
<text x="482" y="474" font-family="Source Sans 3, Segoe UI, Arial" font-size="54" font-weight="800" fill="#533afd">336</text>
<text x="482" y="516" font-family="Source Sans 3, Segoe UI, Arial" font-size="22" fill="#061b31">leyes detectadas</text>
<rect x="482" y="552" width="196" height="10" rx="5" fill="#533afd" opacity=".22"/><rect x="482" y="584" width="146" height="10" rx="5" fill="#533afd" opacity=".14"/>
<rect x="782" y="420" width="300" height="230" rx="18" fill="#ffffff" stroke="#e5edf5"/>
<text x="822" y="474" font-family="Source Sans 3, Segoe UI, Arial" font-size="54" font-weight="800" fill="#0f766e">6679</text>
<text x="822" y="516" font-family="Source Sans 3, Segoe UI, Arial" font-size="22" fill="#061b31">decretos detectados</text>
<path d="M822 575c38-44 70-22 102-54 36-36 70-28 110-64" fill="none" stroke="url(#accent)" stroke-width="12" stroke-linecap="round" opacity=".72"/>
</svg>