<svg xmlns="http://www.w3.org/2000/svg" viewBox="0 0 1200 520" role="img" aria-labelledby="title desc">
<title id="title">LEY.DO archivo legal dominicano</title>
<desc id="desc">Composición abstracta de documentos legales, búsqueda y trazabilidad.</desc>
<defs>
  <linearGradient id="g" x1="0" x2="1" y1="0" y2="1"><stop offset="0" stop-color="#0b1f3a"/><stop offset="0.55" stop-color="#123b66"/><stop offset="1" stop-color="#0f766e"/></linearGradient>
  <linearGradient id="paper" x1="0" x2="0" y1="0" y2="1"><stop offset="0" stop-color="#ffffff"/><stop offset="1" stop-color="#e8eef6"/></linearGradient>
  <filter id="shadow" x="-20%" y="-20%" width="140%" height="140%"><feDropShadow dx="0" dy="16" stdDeviation="18" flood-color="#06101f" flood-opacity="0.28"/></filter>
</defs>
<rect width="1200" height="520" rx="34" fill="url(#g)"/>
<circle cx="980" cy="80" r="190" fill="#ffffff" opacity="0.08"/>
<circle cx="1040" cy="440" r="270" fill="#22d3ee" opacity="0.09"/>
<g filter="url(#shadow)">
  <rect x="112" y="88" width="330" height="380" rx="20" fill="url(#paper)"/>
  <rect x="154" y="138" width="190" height="16" rx="8" fill="#0b1f3a" opacity="0.75"/>
  <rect x="154" y="184" width="236" height="10" rx="5" fill="#41627f" opacity="0.55"/>
  <rect x="154" y="214" width="210" height="10" rx="5" fill="#41627f" opacity="0.45"/>
  <rect x="154" y="244" width="238" height="10" rx="5" fill="#41627f" opacity="0.45"/>
  <rect x="154" y="300" width="126" height="126" rx="14" fill="#0f766e" opacity="0.12"/>
  <path d="M185 363h64m-32-32v64" stroke="#0f766e" stroke-width="14" stroke-linecap="round" opacity="0.85"/>
</g>
<g filter="url(#shadow)">
  <rect x="502" y="128" width="290" height="320" rx="20" fill="#f8fafc"/>
  <rect x="540" y="176" width="190" height="14" rx="7" fill="#0b1f3a" opacity="0.72"/>
  <rect x="540" y="222" width="205" height="9" rx="5" fill="#64748b" opacity="0.50"/>
  <rect x="540" y="250" width="180" height="9" rx="5" fill="#64748b" opacity="0.42"/>
  <rect x="540" y="278" width="210" height="9" rx="5" fill="#64748b" opacity="0.42"/>
  <circle cx="652" cy="366" r="42" fill="#f59e0b" opacity="0.20"/>
  <path d="M626 366h52" stroke="#f59e0b" stroke-width="12" stroke-linecap="round"/>
</g>
<g filter="url(#shadow)">
  <rect x="842" y="92" width="238" height="356" rx="20" fill="#ecfeff"/>
  <path d="M894 160h132M894 204h94M894 248h132M894 292h112" stroke="#0e7490" stroke-width="12" stroke-linecap="round" opacity="0.55"/>
  <circle cx="1010" cy="360" r="48" fill="none" stroke="#0f766e" stroke-width="15"/>
  <path d="M1044 394l48 48" stroke="#0f766e" stroke-width="16" stroke-linecap="round"/>
</g>
<text x="84" y="70" fill="#dff7ff" font-family="Inter,Segoe UI,Arial,sans-serif" font-size="25" font-weight="700" opacity="0.95">LEY.DO</text>
<text x="84" y="500" fill="#ffffff" font-family="Inter,Segoe UI,Arial,sans-serif" font-size="20" opacity="0.76">Documentos legales dominicanos · fuentes oficiales · trazabilidad pública</text>
</svg>